# xmcd
#
# Track frame offsets:
#	150
#	13428
#	38257
#	55935
#	71390
#	86269
#	102723
#	125313
#	143955
#	160683
#	175536
#	297941
#
# Disc length: 4404 seconds
#
# Revision: 2
# Processed by: cddbd v1.5.1PL0 Copyright (c) Steve Scherf et al.
# Submitted via: dBpowerAMP V4.0
#
DISCID=9b11320c
DTITLE=Country Joe McDonald - Vietnam Experience
DYEAR=1900
DGENRE=country
TTITLE0=I feel like I'm fixin' to die rag
TTITLE1=Foreign policy blues
TTITLE2=Agent orange song
TTITLE3=The girl next door (combat nurse)
TTITLE4=Kiss my ass
TTITLE5=Secret agent
TTITLE6=Vietnam veteran still alive
TTITLE7=Vietnam never again
TTITLE8=Mourning blues
TTITLE9=Welcome home
TTITLE10=Vietnam requiem Part 1: The beginning
TTITLE11=Vietnam requiem Part 2: The end
EXTD=
EXTT0=
EXTT1=
EXTT2=
EXTT3=
EXTT4=
EXTT5=
EXTT6=
EXTT7=
EXTT8=
EXTT9=
EXTT10=
EXTT11=
PLAYORDER=
